<svg width="320" height="80" viewBox="0 0 320 80" fill="none" xmlns="http://www.w3.org/2000/svg">
  <g fill="currentColor">
    <!-- "a" with rounded bold style -->
    <path d="M35 60C18 60 8 50 8 35C8 20 18 10 35 10C44 10 51 14 55 20V11H70V60H55V51C51 56 44 60 35 60ZM38 45C44 45 49 40 49 33C49 26 44 21 38 21C32 21 27 26 27 33C27 40 32 45 38 45Z"/>
    
    <!-- double "ll" -->
    <rect x="80" y="8" width="18" height="52" rx="3"/>
    <rect x="102" y="8" width="18" height="52" rx="3"/>
    
    <!-- "u" -->
    <path d="M125 11H143V38C143 41 145 43 149 43C153 43 155 41 155 38V11H173V40C173 52 165 60 149 60C133 60 125 52 125 40V11Z"/>
    
    <!-- "m" with rounded edges -->
    <path d="M180 11H198V15C201 12 206 10 212 10C218 10 223 13 225 18C228 13 234 10 240 10C250 10 258 18 258 30V60H240V33C240 28 237 25 232 25C227 25 224 28 224 33V60H206V33C206 28 203 25 198 25C193 25 190 28 190 33V60H180V11Z"/>
    
    <!-- "i" with starburst dot -->
    <g>
      <!-- i body -->
      <rect x="265" y="25" width="18" height="35" rx="3"/>
      
      <!-- Starburst replacing the i dot -->
      <g transform="translate(274, 12)">
        <!-- Central dot -->
        <rect x="-3" y="-3" width="6" height="6" rx="1" fill="currentColor"/>
        
        <!-- Horizontal and vertical rays -->
        <rect x="-18" y="-1.5" width="12" height="3" fill="currentColor"/>
        <rect x="6" y="-1.5" width="12" height="3" fill="currentColor"/>
        <rect x="-1.5" y="-18" width="3" height="12" fill="currentColor"/>
        <rect x="-1.5" y="6" width="3" height="12" fill="currentColor"/>
        
        <!-- Diagonal rays -->
        <g transform="rotate(45)">
          <rect x="-13" y="-1" width="8" height="2" fill="currentColor"/>
          <rect x="5" y="-1" width="8" height="2" fill="currentColor"/>
          <rect x="-1" y="-13" width="2" height="8" fill="currentColor"/>
          <rect x="-1" y="5" width="2" height="8" fill="currentColor"/>
        </g>
      </g>
    </g>
  </g>
</svg>